Coordinates
version=1
nRows=25
nColumns=23
inDegrees=yes

Units are S.I. units (second, meters, Newtons, ...)
If the header above contains a line with 'inDegrees', this indicates whether rotational values are in degrees (yes) or radians (no).

endheader
time	pelvis_tilt	pelvis_list	pelvis_rotation	pelvis_tx	pelvis_ty	pelvis_tz	hip_flexion_r	hip_adduction_r	hip_rotation_r	knee_angle_r	knee_angle_r_beta	ankle_angle_r	subtalar_angle_r	mtp_angle_r	hip_flexion_l	hip_adduction_l	hip_rotation_l	knee_angle_l	knee_angle_l_beta	ankle_angle_l	subtalar_angle_l	mtp_angle_l
      7.50000000	     -3.54561841	     -4.51811852	     -7.95499951	      2.35364123	      1.07096167	      1.08529393	     19.91990426	      9.93710712	     -1.73382617	      9.01860041	      0.15740427	      7.09708794	      2.80729663	      0.00000000	    -15.98757203	     -6.09529994	    -13.53599336	     61.02454410	      1.06507922	    -16.72503240	     -1.52716786	      0.00000000
      7.50666667	     -2.72189287	     -5.08219892	     -8.18815270	      2.35256704	      1.06743606	      1.08467004	     19.11828999	     10.45109889	     -1.40225763	     10.59731715	      0.18495808	      6.98433430	      2.80970431	      0.00000000	    -15.59651690	     -6.83398527	    -13.50622588	     64.85981617	      1.13201734	    -18.10496546	     -2.27078519	      0.00000000
      7.51333333	     -2.53107529	     -4.97111794	     -8.68605622	      2.35059426	      1.06239887	      1.08440605	     19.74348933	     10.30027710	     -1.64919395	     13.71291789	      0.23933557	      7.43422576	      3.90433296	      0.00000000	    -14.21530113	     -6.87793982	    -13.37405502	     68.87745222	      1.20213832	    -19.42644690	     -3.11239682	      0.00000000
      7.52000000	     -2.01404130	     -5.18306012	     -8.98366702	      2.34880084	      1.05743567	      1.08381634	     19.80935683	     10.41464039	     -1.58618779	     16.67108072	      0.29096525	      7.41375672	      3.94434907	      0.00000000	    -13.19803751	     -7.30998839	    -13.21345852	     72.79363011	      1.27048852	    -20.73591596	     -3.90740586	      0.00000000
      7.52666667	     -1.60530425	     -5.30541529	     -9.27781524	      2.34674410	      1.05192173	      1.08325244	     20.08280699	     10.47788158	     -1.33105104	     19.93846585	      0.34799188	      7.42791289	      3.44410753	      0.00000000	    -11.95049377	     -7.68661304	    -12.98835868	     76.69704137	      1.33861590	    -21.90762497	     -4.67844610	      0.00000000
      7.53333333	     -1.26315167	     -5.36042617	     -9.52334034	      2.34444375	      1.04600843	      1.08266347	     20.46790023	     10.49441184	     -0.99871175	     23.38488451	      0.40814323	      7.58947635	      2.56222056	      0.00000000	    -10.51690766	     -8.03836204	    -12.67176870	     80.56369424	      1.40610172	    -22.84737566	     -5.40175881	      0.00000000
      7.54000000	     -0.98068975	     -5.41177073	     -9.66707415	      2.34196911	      1.03986733	      1.08203995	     20.87634177	     10.53845774	     -0.59284465	     26.84166154	      0.46847537	      8.01289039	      1.34293028	      0.00000000	     -8.90947831	     -8.43875823	    -12.21364352	     84.37108096	      1.47255316	    -23.51048427	     -6.03942943	      0.00000000
      7.54666667	     -0.70535662	     -5.38125535	     -9.79471944	      2.33923261	      1.03363720	      1.08148812	     21.28002468	     10.52583895	     -0.15235662	     30.34690910	      0.52965348	      8.94407916	      0.15537462	      0.00000000	     -7.19590258	     -8.76983324	    -11.69837524	     88.06199480	      1.53697176	    -23.88815734	     -6.60013675	      0.00000000
      7.55333333	     -0.43636293	     -5.45387846	     -9.72772450	      2.33641924	      1.02759752	      1.08081306	     21.51898632	     10.60665178	      0.20864267	     33.59108471	      0.58627503	     10.11754401	     -1.17648045	      0.00000000	     -5.37001878	     -9.25116965	    -10.95642037	     91.63656796	      1.59935983	    -23.93346006	     -6.97260146	      0.00000000
      7.56000000	     -0.17278373	     -5.40294360	     -9.64552527	      2.33337872	      1.02176477	      1.08016652	     21.68049119	     10.58601229	      0.62139937	     36.71991011	      0.64088333	     11.68821792	     -2.28525071	      0.00000000	     -3.42925021	     -9.57482694	    -10.13837922	     95.02034981	      1.65841796	    -23.75604037	     -7.31354167	      0.00000000
      7.56666667	      0.11751143	     -5.45804683	     -9.37435043	      2.33031658	      1.01642910	      1.07939752	     21.57033528	     10.63201925	      0.90901753	     39.43981388	      0.68835461	     13.38843099	     -3.33633349	      0.00000000	     -1.41265722	    -10.00366711	     -9.08899189	     98.22222139	      1.71430116	    -23.25163139	     -7.39406048	      0.00000000
      7.57333333	      0.40070792	     -5.42010905	     -9.06581179	      2.32715588	      1.01158473	      1.07861975	     21.27825844	     10.56813572	      1.18546598	     41.83757862	      0.73020350	     15.25059935	     -4.16632392	      0.00000000	      0.71068543	    -10.29533169	     -7.97540425	    101.17184964	      1.76578189	    -22.54502927	     -7.38452905	      0.00000000
      7.58000000	      0.65119537	     -5.31555640	     -8.72521168	      2.32399231	      1.00734008	      1.07781658	     20.77677735	     10.41358534	      1.44033345	     43.81738829	      0.76475770	     17.11115873	     -4.75262845	      0.00000000	      2.94767490	    -10.45254354	     -6.80511277	    103.84449804	      1.81242840	    -21.61105793	     -7.23982697	      0.00000000
      7.58666667	      1.40997820	     -5.37863546	     -8.42719670	      2.32103714	      1.00458112	      1.07711439	     19.33892925	     10.38958845	      1.81402797	     45.18147466	      0.78856549	     18.88346178	     -5.37229771	      0.00000000	      4.52947232	    -10.70297949	     -5.78327060	    106.05387912	      1.85098938	    -20.73096265	     -7.33000932	      0.00000000
      7.59333333	      0.92312585	     -4.73310740	     -8.07856645	      2.31784312	      1.00069840	      1.07627394	     19.31932246	      9.63944379	      1.90117909	     46.56409452	      0.81269676	     20.73641809	     -5.19826967	      0.00000000	      7.81268326	    -10.20744411	     -4.60505759	    108.23129944	      1.88899253	    -19.41015181	     -6.67150086	      0.00000000
      7.60000000	      0.89308841	     -4.16132819	     -7.83686483	      2.31502533	      0.99828905	      1.07554906	     18.45289333	      8.88893713	      2.08396350	     47.39161265	      0.82713968	     22.48649943	     -4.90112730	      0.00000000	     10.42783620	     -9.70117837	     -3.74680859	    109.88489275	      1.91785318	    -18.17015907	     -6.48383407	      0.00000000
      7.60666667	      1.15433575	     -3.81574725	     -7.61923709	      2.31264816	      0.99726063	      1.07505313	     16.87331095	      8.41072846	      2.43734400	     47.56040995	      0.83008575	     23.85181647	     -5.04800331	      0.00000000	     12.56833363	     -9.42975816	     -3.04550180	    111.08627599	      1.93882127	    -16.82813055	     -6.33746144	      0.00000000
      7.61333333	      0.77166404	     -2.98380204	     -7.40389347	      2.31045012	      0.99599578	      1.07443253	     15.99727151	      7.27933929	      2.38928513	     47.68286068	      0.83222292	     25.26299514	     -4.11392293	      0.00000000	     15.48230464	     -8.60686042	     -2.53402633	    112.01585635	      1.95504551	    -15.40389767	     -6.12996171	      0.00000000
      7.62000000	      0.79830496	     -2.51964661	     -7.39161094	      2.30886290	      0.99642859	      1.07443383	     14.22208080	      6.72647119	      2.91000562	     47.04287657	      0.82105309	     26.02419339	     -4.04710853	      0.00000000	     17.62495956	     -8.27310298	     -2.36728055	    112.40479222	      1.96183372	    -14.13596597	     -6.32391070	      0.00000000
      7.62666667	      0.62602301	     -1.85248301	     -7.07543546	      2.30791269	      0.99715480	      1.07390258	     12.59632623	      5.63567030	      2.58757907	     46.25906799	      0.80737305	     26.84279499	     -3.17299232	      0.00000000	     19.96948066	     -7.58896825	     -2.13858323	    112.49355548	      1.96338293	    -12.46085155	     -6.27409699	      0.00000000
      7.63333333	      0.33499489	     -1.28983174	     -7.16147832	      2.30718064	      0.99873053	      1.07424443	     10.87028898	      4.97658790	      3.07327649	     45.03129442	      0.78594435	     27.11958662	     -2.91085428	      0.00000000	     22.16864297	     -7.24711008	     -2.42587176	    112.14251532	      1.95725612	    -11.22200558	     -6.67589866	      0.00000000
      7.64000000	      0.50788163	     -0.60406709	     -6.85405348	      2.30747932	      1.00150552	      1.07378296	      8.48410861	      3.75933704	      2.59137660	     43.49921128	      0.75920446	     27.23053561	     -1.80231885	      0.00000000	     23.69528900	     -6.45220985	     -2.61014066	    111.35181731	      1.94345584	     -9.59076280	     -7.48108065	      0.00000000
      7.64666667	     -0.02635367	      0.01398958	     -6.92708496	      2.30772533	      1.00408912	      1.07416215	      6.82151435	      3.02250062	      2.96849332	     41.82744226	      0.73002659	     26.90728750	     -1.33011960	      0.00000000	     25.82102675	     -6.05970264	     -3.19358997	    110.32291063	      1.92549803	     -8.13439691	     -8.12927154	      0.00000000
      7.65333333	      0.29735203	      0.74333636	     -6.61564896	      2.30914993	      1.00849816	      1.07373248	      3.98713482	      1.74725937	      2.36964337	     39.65210733	      0.69205983	     26.01892556	     -0.43150083	      0.00000000	     26.74833537	     -5.16621735	     -3.69361097	    108.75462021	      1.89812620	     -6.83979128	     -9.51406718	      0.00000000
      7.66000000	      0.34039405	      1.29956784	     -6.44417294	      2.31083533	      1.01310864	      1.07366071	      1.39095844	      0.81881390	      2.02150375	     37.30037331	      0.65101433	     24.64385185	      0.54534701	      0.00000000	     27.77743413	     -4.58923642	     -4.30661394	    106.93929655	      1.86644282	     -5.44508406	    -10.71830883	      0.00000000
